<svg width="12" height="20" viewBox="0 0 12 20" fill="none" xmlns="http://www.w3.org/2000/svg">
<path d="M11.1381 13.1273C11.1381 14.2413 10.7758 15.2006 10.0514 16.0052C9.32688 16.8098 8.38579 17.3067 7.22809 17.496V19.4073C7.22809 19.5092 7.19533 19.593 7.12979 19.6585C7.06426 19.724 6.98053 19.7568 6.87859 19.7568H5.40416C5.30951 19.7568 5.22759 19.7222 5.15842 19.653C5.08925 19.5839 5.05467 19.502 5.05467 19.4073V17.496C4.57411 17.4305 4.10994 17.3176 3.66215 17.1574C3.21435 16.9972 2.84484 16.8352 2.55359 16.6714C2.26234 16.5076 1.99294 16.3328 1.74538 16.1472C1.49782 15.9615 1.32854 15.825 1.23752 15.7376C1.14651 15.6502 1.0828 15.5847 1.04639 15.541C0.922611 15.3881 0.91533 15.2388 1.02455 15.0932L2.14949 13.6188C2.20045 13.546 2.28419 13.5023 2.40069 13.4877C2.5099 13.4732 2.59728 13.5059 2.66281 13.586L2.68465 13.6079C3.50742 14.3287 4.39208 14.7838 5.33863 14.9731C5.60803 15.0313 5.87744 15.0605 6.14684 15.0605C6.73661 15.0605 7.25539 14.9039 7.70319 14.5908C8.15098 14.2777 8.37487 13.8336 8.37487 13.2584C8.37487 13.0545 8.32026 12.8615 8.21105 12.6795C8.10183 12.4975 7.97987 12.3446 7.84517 12.2208C7.71047 12.097 7.49749 11.9605 7.20625 11.8112C6.915 11.662 6.67472 11.5455 6.48541 11.4617C6.2961 11.378 6.00486 11.2597 5.61167 11.1068C5.32771 10.9903 5.10381 10.8993 4.93999 10.8337C4.77616 10.7682 4.55227 10.6717 4.2683 10.5443C3.98434 10.4169 3.7568 10.304 3.58569 10.2057C3.41459 10.1075 3.20889 9.97821 2.96862 9.81803C2.72834 9.65784 2.53357 9.50312 2.3843 9.35385C2.23504 9.20459 2.07667 9.0262 1.90921 8.81869C1.74174 8.61117 1.6125 8.40002 1.52149 8.18523C1.43047 7.97043 1.35402 7.72833 1.29213 7.45893C1.23024 7.18953 1.1993 6.90556 1.1993 6.60704C1.1993 5.60224 1.55607 4.72122 2.26962 3.96398C2.98318 3.20674 3.91152 2.7189 5.05467 2.50047V0.534554C5.05467 0.439899 5.08925 0.357986 5.15842 0.288815C5.22759 0.219644 5.30951 0.185059 5.40416 0.185059H6.87859C6.98053 0.185059 7.06426 0.217824 7.12979 0.283354C7.19533 0.348885 7.22809 0.432618 7.22809 0.534554V2.45678C7.64312 2.50047 8.0454 2.5842 8.43494 2.70798C8.82448 2.83176 9.14121 2.95372 9.38513 3.07386C9.62905 3.194 9.86023 3.33052 10.0787 3.48342C10.2971 3.63633 10.4391 3.7419 10.5046 3.80015C10.5701 3.8584 10.6247 3.90937 10.6684 3.95306C10.7922 4.08412 10.8104 4.22246 10.723 4.36808L9.83838 5.96265C9.78014 6.07187 9.6964 6.13012 9.58718 6.1374C9.48525 6.15925 9.38695 6.13376 9.2923 6.06095C9.27045 6.03911 9.21767 5.99542 9.13393 5.92989C9.0502 5.86436 8.90822 5.76788 8.70798 5.64046C8.50775 5.51304 8.29478 5.39654 8.06906 5.29097C7.84335 5.18539 7.57212 5.09074 7.25539 5.007C6.93866 4.92327 6.6274 4.8814 6.32159 4.8814C5.62988 4.8814 5.06559 5.03795 4.62872 5.35104C4.19185 5.66413 3.97341 6.06823 3.97341 6.56335C3.97341 6.75266 4.00436 6.92741 4.06625 7.08759C4.12814 7.24778 4.23554 7.39886 4.38844 7.54084C4.54134 7.68283 4.68515 7.80297 4.81985 7.90126C4.95455 7.99956 5.15842 8.11242 5.43147 8.23984C5.70451 8.36726 5.92476 8.46555 6.09223 8.53472C6.2597 8.60389 6.51454 8.70401 6.85675 8.83507C7.24265 8.98069 7.53754 9.09537 7.74141 9.1791C7.94528 9.26284 8.22197 9.39026 8.57146 9.56137C8.92096 9.73247 9.19582 9.8872 9.39605 10.0255C9.59629 10.1639 9.822 10.3459 10.0732 10.5716C10.3244 10.7973 10.5174 11.0285 10.6521 11.2652C10.7868 11.5018 10.9014 11.7803 10.9961 12.1007C11.0907 12.421 11.1381 12.7633 11.1381 13.1273Z" fill="white"/>
</svg>
