<svg width="14" height="20" viewBox="0 0 14 20" fill="none" xmlns="http://www.w3.org/2000/svg">
<path d="M13.4347 16.2549L13.9107 18.4173C13.9379 18.526 13.9243 18.628 13.8699 18.7232C13.8155 18.8184 13.7384 18.8842 13.6387 18.9204L13.5707 18.934C13.5344 18.9522 13.4868 18.968 13.4279 18.9816C13.369 18.9952 13.2964 19.0156 13.2103 19.0428C13.1242 19.07 13.0267 19.095 12.9179 19.1176C12.8091 19.1403 12.6935 19.163 12.5711 19.1856C12.4487 19.2083 12.3127 19.231 12.1631 19.2536C12.0135 19.2763 11.8617 19.2967 11.7076 19.3148C11.5534 19.333 11.388 19.3465 11.2112 19.3556C11.0344 19.3647 10.8599 19.3692 10.6876 19.3692C8.56608 19.3692 6.71202 18.7776 5.12542 17.5945C3.53882 16.4113 2.45993 14.8179 1.88875 12.8143H0.596803C0.478942 12.8143 0.376946 12.7712 0.290816 12.6851C0.204686 12.599 0.161621 12.497 0.161621 12.3791V10.8424C0.161621 10.7245 0.204686 10.6225 0.290816 10.5364C0.376946 10.4502 0.478942 10.4072 0.596803 10.4072H1.49437C1.47623 9.8904 1.48077 9.41442 1.50797 8.97924H0.596803C0.469875 8.97924 0.365613 8.93844 0.284016 8.85684C0.202419 8.77524 0.161621 8.67098 0.161621 8.54405V6.99372C0.161621 6.86679 0.202419 6.76253 0.284016 6.68093C0.365613 6.59933 0.469875 6.55853 0.596803 6.55853H1.92955C2.53699 4.65461 3.64081 3.12241 5.24102 1.96192C6.84122 0.801435 8.65674 0.221191 10.6876 0.221191C11.6124 0.221191 12.4918 0.325454 13.3259 0.533979C13.4256 0.561178 13.5163 0.629175 13.5979 0.73797C13.6523 0.8377 13.6659 0.946495 13.6387 1.06436L13.0539 3.22667C13.0267 3.34453 12.9632 3.43293 12.8635 3.49186C12.7638 3.55079 12.655 3.56212 12.5371 3.52586L12.4827 3.51226C12.4465 3.50319 12.3943 3.49186 12.3263 3.47826L12.0883 3.43066L11.7824 3.38306L11.4288 3.34226L11.0344 3.30827L10.6332 3.29467C9.49084 3.29467 8.46635 3.58479 7.55972 4.16503C6.65309 4.74527 5.97312 5.54311 5.5198 6.55853H11.8843C12.0294 6.55853 12.1427 6.61293 12.2243 6.72173C12.315 6.83052 12.3467 6.94839 12.3195 7.07531L11.9931 8.62565C11.9478 8.86137 11.8027 8.97924 11.558 8.97924H4.92143C4.89423 9.31469 4.89423 9.79067 4.92143 10.4072H11.1636C11.2996 10.4072 11.4129 10.4616 11.5036 10.5704C11.5852 10.6792 11.6124 10.8016 11.5852 10.9376L11.2588 12.4607C11.2406 12.5604 11.1908 12.6443 11.1092 12.7123C11.0276 12.7803 10.9369 12.8143 10.8372 12.8143H5.5742C6.00938 13.875 6.68709 14.7159 7.60732 15.337C8.52755 15.958 9.56337 16.2685 10.7148 16.2685C10.878 16.2685 11.0412 16.2617 11.2044 16.2481C11.3676 16.2345 11.5194 16.2187 11.66 16.2005C11.8005 16.1824 11.9342 16.162 12.0611 16.1393C12.1881 16.1167 12.2991 16.094 12.3943 16.0713C12.4895 16.0487 12.5734 16.0283 12.6459 16.0102L12.8091 15.9694L12.8771 15.9422C12.995 15.8968 13.1128 15.9059 13.2307 15.9694C13.3395 16.0328 13.4075 16.128 13.4347 16.2549Z" fill="white"/>
</svg>
