<svg width="14" height="19" viewBox="0 0 14 19" fill="none" xmlns="http://www.w3.org/2000/svg">
<path d="M13.4762 17.6034C13.4762 18.3139 12.9008 18.89 12.1895 18.89H1.89611C1.39712 18.89 0.942361 18.601 0.731266 18.1486C0.518924 17.6971 0.588043 17.1627 0.907179 16.7795C2.04307 15.418 2.66751 13.7015 2.66751 11.9464V11.17H1.89611C1.18482 11.17 0.609434 10.595 0.609434 9.88332C0.609434 9.17162 1.18482 8.59664 1.89611 8.59664H2.66771V5.91473C2.66771 3.13712 4.96403 0.876587 7.79069 0.876587C8.34115 0.876587 8.88638 0.963277 9.40909 1.13481L12.5892 2.17581C13.2651 2.39631 13.6334 3.12312 13.4123 3.79863C13.1924 4.47293 12.4625 4.84325 11.7902 4.62089L8.60853 3.57989C8.34155 3.49377 8.06813 3.44994 7.79069 3.44994C6.38339 3.44994 5.24147 4.55567 5.24147 5.91473V8.59664H9.61616C10.3275 8.59664 10.9028 9.17283 10.9028 9.88332C10.9028 10.5938 10.3275 11.17 9.61616 11.17H5.24147V11.946C5.24147 13.4631 4.89467 14.958 4.24108 16.3167H12.1895C12.9012 16.3167 13.4762 16.8917 13.4762 17.6034Z" fill="white"/>
</svg>
