<svg width="50" height="49" viewBox="0 0 50 49" fill="none" xmlns="http://www.w3.org/2000/svg">
<rect x="0.947021" y="0.275391" width="48.1313" height="48.1313" rx="9" fill="#51B56D"/>
<path d="M31.0997 28.112C31.0997 29.4428 30.667 30.5888 29.8015 31.55C28.936 32.5112 27.8117 33.1049 26.4286 33.331V35.6144C26.4286 35.7362 26.3895 35.8362 26.3112 35.9145C26.2329 35.9928 26.1329 36.0319 26.0111 36.0319H24.2497C24.1366 36.0319 24.0387 35.9906 23.9561 35.908C23.8735 35.8253 23.8321 35.7275 23.8321 35.6144V33.331C23.258 33.2528 22.7035 33.1179 22.1685 32.9266C21.6336 32.7352 21.1921 32.5417 20.8442 32.3459C20.4963 32.1502 20.1744 31.9415 19.8787 31.7196C19.5829 31.4978 19.3807 31.3347 19.272 31.2304C19.1632 31.126 19.0871 31.0477 19.0436 30.9955C18.8957 30.8128 18.887 30.6345 19.0175 30.4605L20.3614 28.6991C20.4223 28.6121 20.5224 28.5599 20.6615 28.5425C20.792 28.5251 20.8964 28.5643 20.9747 28.66L21.0008 28.6861C21.9837 29.5472 23.0406 30.0909 24.1714 30.317C24.4932 30.3866 24.8151 30.4214 25.1369 30.4214C25.8415 30.4214 26.4613 30.2344 26.9962 29.8603C27.5312 29.4863 27.7986 28.9557 27.7986 28.2685C27.7986 28.025 27.7334 27.7945 27.6029 27.577C27.4725 27.3595 27.3268 27.1769 27.1658 27.029C27.0049 26.8811 26.7505 26.718 26.4025 26.5397C26.0546 26.3614 25.7675 26.2222 25.5414 26.1222C25.3152 26.0221 24.9673 25.8808 24.4976 25.6981C24.1583 25.5589 23.8909 25.4502 23.6951 25.3719C23.4994 25.2936 23.2319 25.1784 22.8927 25.0262C22.5535 24.8739 22.2816 24.7391 22.0772 24.6217C21.8728 24.5043 21.6271 24.3499 21.34 24.1585C21.053 23.9671 20.8203 23.7823 20.642 23.604C20.4636 23.4256 20.2745 23.2125 20.0744 22.9646C19.8743 22.7167 19.7199 22.4645 19.6112 22.2079C19.5025 21.9512 19.4111 21.662 19.3372 21.3402C19.2633 21.0183 19.2263 20.6791 19.2263 20.3225C19.2263 19.1221 19.6525 18.0695 20.505 17.1649C21.3574 16.2603 22.4665 15.6775 23.8321 15.4165V13.0679C23.8321 12.9548 23.8735 12.857 23.9561 12.7743C24.0387 12.6917 24.1366 12.6504 24.2497 12.6504H26.0111C26.1329 12.6504 26.2329 12.6895 26.3112 12.7678C26.3895 12.8461 26.4286 12.9461 26.4286 13.0679V15.3643C26.9244 15.4165 27.405 15.5165 27.8704 15.6644C28.3358 15.8123 28.7142 15.958 29.0056 16.1015C29.297 16.245 29.5731 16.4081 29.8341 16.5908C30.095 16.7735 30.2647 16.8996 30.343 16.9692C30.4212 17.0388 30.4865 17.0997 30.5387 17.1519C30.6865 17.3084 30.7083 17.4737 30.6039 17.6477L29.547 19.5526C29.4775 19.6831 29.3774 19.7527 29.2469 19.7614C29.1252 19.7875 29.0077 19.7571 28.8947 19.6701C28.8686 19.644 28.8055 19.5918 28.7055 19.5135C28.6054 19.4352 28.4358 19.32 28.1966 19.1677C27.9574 19.0155 27.703 18.8763 27.4333 18.7502C27.1637 18.6241 26.8396 18.511 26.4613 18.411C26.0829 18.3109 25.711 18.2609 25.3457 18.2609C24.5193 18.2609 23.8452 18.4479 23.3233 18.822C22.8014 19.196 22.5404 19.6788 22.5404 20.2703C22.5404 20.4964 22.5774 20.7052 22.6513 20.8966C22.7253 21.0879 22.8536 21.2684 23.0362 21.438C23.2189 21.6077 23.3907 21.7512 23.5516 21.8686C23.7125 21.986 23.9561 22.1209 24.2823 22.2731C24.6085 22.4253 24.8716 22.5427 25.0717 22.6254C25.2717 22.708 25.5762 22.8276 25.985 22.9842C26.446 23.1582 26.7983 23.2952 27.0419 23.3952C27.2854 23.4952 27.616 23.6475 28.0335 23.8519C28.451 24.0563 28.7794 24.2411 29.0186 24.4064C29.2578 24.5717 29.5275 24.7891 29.8276 25.0588C30.1277 25.3284 30.3582 25.6046 30.5191 25.8873C30.68 26.17 30.817 26.5027 30.9301 26.8855C31.0432 27.2682 31.0997 27.677 31.0997 28.112Z" fill="white"/>
</svg>
