<svg width="55" height="56" viewBox="0 0 55 56" fill="none" xmlns="http://www.w3.org/2000/svg">
<path d="M2.35778 37.5537C3.28402 37.5537 4.03489 36.8028 4.03489 35.8766C4.03489 34.9503 3.28402 34.1995 2.35778 34.1995C1.43153 34.1995 0.680664 34.9503 0.680664 35.8766C0.680664 36.8028 1.43153 37.5537 2.35778 37.5537Z" fill="#34C88A"/>
<path d="M14.5619 19.3339C15.1806 19.3339 15.7848 19.4037 16.3644 19.5332C19.8502 10.0296 28.988 3.22863 39.6837 3.22863C44.0574 3.22863 48.3282 4.38987 52.075 6.55409L53.7706 4.59745C49.5409 2.05095 44.6739 0.682129 39.6837 0.682129C27.6212 0.682129 17.3592 8.52511 13.7213 19.377C13.9967 19.3482 14.2783 19.3339 14.5619 19.3339Z" fill="#34C88A"/>
<path d="M52.9773 49.0161C48.7311 51.7229 43.7511 53.0794 38.5985 52.8595C28.0549 52.4074 19.2356 45.3166 16.091 35.7595C15.5957 35.852 15.0839 35.9034 14.5619 35.9034C14.1796 35.9034 13.8035 35.8746 13.4356 35.8253C16.7919 47.1458 27.2882 55.4307 39.6837 55.4307C45.05 55.4307 50.2314 53.8645 54.6585 50.9584L52.9773 49.0182V49.0161Z" fill="#34C88A"/>
<path d="M14.562 36.3433C9.75059 36.3433 5.83527 32.428 5.83527 27.6186C5.83527 22.8092 9.75059 18.8918 14.562 18.8918C19.3734 18.8918 23.2867 22.8072 23.2867 27.6186C23.2867 32.43 19.3714 36.3433 14.562 36.3433ZM14.562 20.2155C10.4802 20.2155 7.16093 23.5368 7.16093 27.6165C7.16093 31.6963 10.4823 35.0176 14.562 35.0176C18.6418 35.0176 21.9631 31.6983 21.9631 27.6165C21.9631 23.5347 18.6438 20.2155 14.562 20.2155Z" fill="#34C88A"/>
<path d="M14.562 31.7929C16.8674 31.7929 18.7363 29.924 18.7363 27.6186C18.7363 25.3132 16.8674 23.4443 14.562 23.4443C12.2566 23.4443 10.3878 25.3132 10.3878 27.6186C10.3878 29.924 12.2566 31.7929 14.562 31.7929Z" fill="#34C88A"/>
</svg>
