<svg width="262" height="50" viewBox="0 0 262 50" fill="none" xmlns="http://www.w3.org/2000/svg">
<path d="M230.784 25.1834C229.428 24.289 227.934 23.653 226.519 22.858C225.602 22.3412 224.625 21.8839 223.829 21.228C222.473 20.115 222.752 17.9287 224.168 16.9746C226.2 15.623 229.567 16.3782 229.926 19.1411C229.926 19.2006 229.986 19.2405 230.046 19.2405H233.115C233.195 19.2405 233.255 19.1808 233.235 19.1014C233.075 17.1931 232.338 15.6031 230.983 14.5894C229.687 13.6154 228.213 13.0986 226.637 13.0986C218.527 13.0986 217.79 21.6653 222.154 24.3686C222.652 24.6866 226.936 26.8332 228.452 27.7674C229.966 28.7015 230.445 30.411 229.787 31.7625C229.188 32.9949 227.634 33.8496 226.081 33.7502C224.386 33.6508 223.071 32.7366 222.612 31.3054C222.533 31.0471 222.493 30.5501 222.493 30.3315C222.493 30.2718 222.433 30.2122 222.373 30.2122H219.046C218.986 30.2122 218.926 30.2718 218.926 30.3315C218.926 32.7366 219.525 34.0682 221.158 35.2808C222.692 36.4335 224.366 36.9106 226.101 36.9106C230.644 36.9106 232.996 34.3464 233.473 31.683C233.891 29.0792 233.115 26.7338 230.784 25.1834Z" fill="white"/>
<path d="M86.2879 13.536H84.8133H83.1991C83.1393 13.536 83.0994 13.5758 83.0795 13.6155L80.3495 22.5996C80.3096 22.719 80.1503 22.719 80.1104 22.5996L77.3803 13.6155C77.3603 13.5559 77.3205 13.536 77.2606 13.536H75.6466H74.1719H72.1792C72.1193 13.536 72.0595 13.5956 72.0595 13.6553V36.5927C72.0595 36.6522 72.1193 36.7119 72.1792 36.7119H75.507C75.5669 36.7119 75.6267 36.6522 75.6267 36.5927V19.161C75.6267 19.0219 75.8259 19.0021 75.8658 19.1213L78.6157 28.1651L78.815 28.801C78.8349 28.8607 78.8748 28.8807 78.9346 28.8807H81.4854C81.5451 28.8807 81.585 28.8408 81.6049 28.801L81.8042 28.1651L84.5542 19.1213C84.5941 18.9821 84.7934 19.0219 84.7934 19.161V36.5927C84.7934 36.6522 84.8532 36.7119 84.9128 36.7119H88.2409C88.3006 36.7119 88.3604 36.6522 88.3604 36.5927V13.6553C88.3604 13.5956 88.3006 13.536 88.2409 13.536H86.2879Z" fill="white"/>
<path d="M179.828 13.536C179.768 13.536 179.728 13.5758 179.708 13.6155L176.979 22.5996C176.939 22.719 176.78 22.719 176.74 22.5996L174.009 13.6155C173.99 13.5559 173.95 13.536 173.89 13.536H168.828C168.768 13.536 168.708 13.5956 168.708 13.6553V36.5927C168.708 36.6522 168.768 36.7119 168.828 36.7119H172.156C172.216 36.7119 172.276 36.6522 172.276 36.5927V19.161C172.276 19.0219 172.476 19.0021 172.515 19.1213L175.264 28.1651L175.464 28.801C175.484 28.8607 175.523 28.8807 175.583 28.8807H178.134C178.194 28.8807 178.234 28.8408 178.254 28.801L178.453 28.1651L181.204 19.1213C181.244 18.9821 181.443 19.0219 181.443 19.161V36.5927C181.443 36.6522 181.503 36.7119 181.563 36.7119H184.89C184.95 36.7119 185.009 36.6522 185.009 36.5927V13.6553C185.009 13.5956 184.95 13.536 184.89 13.536H179.828Z" fill="white"/>
<path d="M136.904 13.536H130.706H127.378H121.181C121.121 13.536 121.061 13.5956 121.061 13.6553V16.5174C121.061 16.5771 121.121 16.6367 121.181 16.6367H127.259V36.5927C127.259 36.6522 127.319 36.7119 127.378 36.7119H130.706C130.766 36.7119 130.826 36.6522 130.826 36.5927V16.6367H136.904C136.964 16.6367 137.023 16.5771 137.023 16.5174V13.6553C137.023 13.5956 136.984 13.536 136.904 13.536Z" fill="white"/>
<path d="M156.533 36.7116H159.561C159.641 36.7116 159.701 36.6322 159.681 36.5527L153.424 13.5358C153.404 13.4762 153.364 13.4563 153.304 13.4563H152.149H150.116H148.96C148.901 13.4563 148.861 13.4961 148.841 13.5358L142.583 36.5527C142.564 36.6322 142.623 36.7116 142.703 36.7116H145.732C145.792 36.7116 145.832 36.6719 145.852 36.6322L147.665 29.9338C147.685 29.8743 147.725 29.8543 147.785 29.8543H154.481C154.541 29.8543 154.581 29.894 154.601 29.9338L156.414 36.6322C156.434 36.6719 156.493 36.7116 156.533 36.7116ZM148.582 26.5748L151.013 17.6104C151.053 17.4912 151.212 17.4912 151.252 17.6104L153.683 26.5748C153.703 26.6542 153.643 26.7337 153.564 26.7337H148.701C148.622 26.7337 148.562 26.6542 148.582 26.5748Z" fill="white"/>
<path d="M208.186 36.7116H211.214C211.293 36.7116 211.353 36.6322 211.333 36.5527L205.076 13.5358C205.056 13.4762 205.017 13.4563 204.957 13.4563H203.802H201.769H200.613C200.553 13.4563 200.513 13.4961 200.493 13.5358L194.236 36.5527C194.216 36.6322 194.276 36.7116 194.356 36.7116H197.385C197.445 36.7116 197.485 36.6719 197.505 36.6322L199.318 29.9338C199.338 29.8743 199.378 29.8543 199.438 29.8543H206.133C206.193 29.8543 206.233 29.894 206.253 29.9338L208.066 36.6322C208.086 36.6719 208.126 36.7116 208.186 36.7116ZM200.234 26.5748L202.665 17.6104C202.705 17.4912 202.864 17.4912 202.904 17.6104L205.336 26.5748C205.356 26.6542 205.296 26.7337 205.216 26.7337H200.353C200.274 26.7337 200.214 26.6542 200.234 26.5748Z" fill="white"/>
<path d="M101.871 33.313V26.1972C101.871 26.1377 101.931 26.0781 101.991 26.0781H110.859C110.919 26.0781 110.978 26.0184 110.978 25.9587V23.0965C110.978 23.037 110.919 22.9774 110.859 22.9774H101.991C101.931 22.9774 101.871 22.9177 101.871 22.858V16.7759C101.871 16.7163 101.931 16.6566 101.991 16.6566H112.074C112.134 16.6566 112.194 16.5969 112.194 16.5374V13.6752C112.194 13.6155 112.134 13.5559 112.074 13.5559H101.871H98.424C98.3641 13.5559 98.3043 13.6155 98.3043 13.6752V16.6566V22.9971V26.098V33.4522V36.5926C98.3043 36.6523 98.3641 36.7119 98.424 36.7119H101.871H112.493C112.553 36.7119 112.612 36.6523 112.612 36.5926V33.5715C112.612 33.5118 112.553 33.4522 112.493 33.4522H101.971C101.911 33.4324 101.871 33.3925 101.871 33.313Z" fill="white"/>
<path d="M261.192 36.5131L249.674 24.6469C249.634 24.6072 249.634 24.5277 249.674 24.488L260.037 13.7547C260.117 13.6752 260.057 13.5559 259.958 13.5559H255.713C255.673 13.5559 255.653 13.5758 255.633 13.5957L246.845 22.6991C246.766 22.7786 246.646 22.7189 246.646 22.6195V13.6752C246.646 13.6155 246.586 13.5559 246.526 13.5559H243.198C243.138 13.5559 243.078 13.6155 243.078 13.6752V36.6125C243.078 36.6722 243.138 36.7319 243.198 36.7319H246.526C246.586 36.7319 246.646 36.6722 246.646 36.6125V26.5154C246.646 26.416 246.786 26.3563 246.845 26.4358L256.808 36.692C256.828 36.7119 256.868 36.7319 256.888 36.7319H261.133C261.212 36.7119 261.272 36.5728 261.192 36.5131Z" fill="white"/>
<path d="M49.3221 1.19263L29.1752 16.0999L32.9217 7.31457L49.3221 1.19263Z" fill="#E17726" stroke="#E17726" stroke-width="0.397223" stroke-linecap="round" stroke-linejoin="round"/>
<path d="M2.85071 1.19263L22.8182 16.239L19.2512 7.31455L2.85071 1.19263Z" fill="#E27625" stroke="#E27625" stroke-width="0.397223" stroke-linecap="round" stroke-linejoin="round"/>
<path d="M42.068 35.7576L36.7075 43.9467L48.1858 47.107L51.4739 35.9366L42.068 35.7576Z" fill="#E27625" stroke="#E27625" stroke-width="0.397223" stroke-linecap="round" stroke-linejoin="round"/>
<path d="M0.718262 35.9366L3.98638 47.107L15.4448 43.9467L10.1042 35.7576L0.718262 35.9366Z" fill="#E27625" stroke="#E27625" stroke-width="0.397223" stroke-linecap="round" stroke-linejoin="round"/>
<path d="M14.827 21.9235L11.6387 26.7337L22.9974 27.2505L22.6188 15.0265L14.827 21.9235Z" fill="#E27625" stroke="#E27625" stroke-width="0.397223" stroke-linecap="round" stroke-linejoin="round"/>
<path d="M37.3451 21.9238L29.434 14.8876L29.1749 27.2507L40.5335 26.7339L37.3451 21.9238Z" fill="#E27625" stroke="#E27625" stroke-width="0.397223" stroke-linecap="round" stroke-linejoin="round"/>
<path d="M15.445 43.9466L22.32 40.6273L16.4016 36.016L15.445 43.9466Z" fill="#E27625" stroke="#E27625" stroke-width="0.397223" stroke-linecap="round" stroke-linejoin="round"/>
<path d="M29.8527 40.6273L36.7077 43.9466L35.7711 36.016L29.8527 40.6273Z" fill="#E27625" stroke="#E27625" stroke-width="0.397223" stroke-linecap="round" stroke-linejoin="round"/>
<path d="M36.7077 43.9469L29.8527 40.6276L30.4106 45.0798L30.3507 46.9681L36.7077 43.9469Z" fill="#D5BFB2" stroke="#D5BFB2" stroke-width="0.397223" stroke-linecap="round" stroke-linejoin="round"/>
<path d="M15.445 43.9469L21.8219 46.9681L21.782 45.0798L22.32 40.6276L15.445 43.9469Z" fill="#D5BFB2" stroke="#D5BFB2" stroke-width="0.397223" stroke-linecap="round" stroke-linejoin="round"/>
<path d="M21.9413 33.0744L16.2419 31.4048L20.2673 29.5563L21.9413 33.0744Z" fill="#233447" stroke="#233447" stroke-width="0.397223" stroke-linecap="round" stroke-linejoin="round"/>
<path d="M30.2313 33.0744L31.9053 29.5563L35.9506 31.4048L30.2313 33.0744Z" fill="#233447" stroke="#233447" stroke-width="0.397223" stroke-linecap="round" stroke-linejoin="round"/>
<path d="M15.4449 43.9467L16.4413 35.7576L10.1043 35.9366L15.4449 43.9467Z" fill="#CC6228" stroke="#CC6228" stroke-width="0.397223" stroke-linecap="round" stroke-linejoin="round"/>
<path d="M35.7311 35.7576L36.7076 43.9467L42.0681 35.9366L35.7311 35.7576Z" fill="#CC6228" stroke="#CC6228" stroke-width="0.397223" stroke-linecap="round" stroke-linejoin="round"/>
<path d="M40.5335 26.7336L29.1749 27.2504L30.231 33.0743L31.905 29.5561L35.9503 31.4046L40.5335 26.7336Z" fill="#CC6228" stroke="#CC6228" stroke-width="0.397223" stroke-linecap="round" stroke-linejoin="round"/>
<path d="M16.2419 31.4046L20.2673 29.5561L21.9413 33.0743L22.9974 27.2504L11.6387 26.7336L16.2419 31.4046Z" fill="#CC6228" stroke="#CC6228" stroke-width="0.397223" stroke-linecap="round" stroke-linejoin="round"/>
<path d="M11.639 26.7336L16.4017 36.016L16.2422 31.4046L11.639 26.7336Z" fill="#E27525" stroke="#E27525" stroke-width="0.397223" stroke-linecap="round" stroke-linejoin="round"/>
<path d="M35.9506 31.4046L35.7712 36.016L40.534 26.7336L35.9506 31.4046Z" fill="#E27525" stroke="#E27525" stroke-width="0.397223" stroke-linecap="round" stroke-linejoin="round"/>
<path d="M22.998 27.2505L21.9418 33.0744L23.2769 39.9515L23.5759 30.8879L22.998 27.2505Z" fill="#E27525" stroke="#E27525" stroke-width="0.397223" stroke-linecap="round" stroke-linejoin="round"/>
<path d="M29.1752 27.2505L28.6172 30.8681L28.8962 39.9515L30.2314 33.0744L29.1752 27.2505Z" fill="#E27525" stroke="#E27525" stroke-width="0.397223" stroke-linecap="round" stroke-linejoin="round"/>
<path d="M30.2313 33.0745L28.8962 39.9516L29.8527 40.6274L35.7713 36.0161L35.9506 31.4048L30.2313 33.0745Z" fill="#F5841F" stroke="#F5841F" stroke-width="0.397223" stroke-linecap="round" stroke-linejoin="round"/>
<path d="M16.2419 31.4048L16.4015 36.0161L22.3199 40.6274L23.2764 39.9516L21.9413 33.0745L16.2419 31.4048Z" fill="#F5841F" stroke="#F5841F" stroke-width="0.397223" stroke-linecap="round" stroke-linejoin="round"/>
<path d="M30.3509 46.968L30.4106 45.0797L29.8926 44.6424H22.2802L21.782 45.0797L21.8219 46.968L15.445 43.9468L17.6769 45.7754L22.2005 48.896H29.9522L34.4958 45.7754L36.7077 43.9468L30.3509 46.968Z" fill="#C0AC9D" stroke="#C0AC9D" stroke-width="0.397223" stroke-linecap="round" stroke-linejoin="round"/>
<path d="M29.8525 40.6272L28.896 39.9515H23.2764L22.32 40.6272L21.7819 45.0797L22.2801 44.6423H29.8924L30.4106 45.0797L29.8525 40.6272Z" fill="#161616" stroke="#161616" stroke-width="0.397223" stroke-linecap="round" stroke-linejoin="round"/>
<path d="M50.1787 17.0738L51.8727 8.84504L49.3219 1.19263L29.8527 15.6031L37.3453 21.9237L47.9269 25.0046L50.2585 22.2815L49.2423 21.546L50.8563 20.0753L49.6208 19.1212L51.235 17.8888L50.1787 17.0738Z" fill="#763E1A" stroke="#763E1A" stroke-width="0.397223" stroke-linecap="round" stroke-linejoin="round"/>
<path d="M0.299988 8.84504L2.01377 17.0738L0.917751 17.8888L2.55181 19.1212L1.3163 20.0753L2.93043 21.546L1.91412 22.2815L4.24566 25.0046L14.8273 21.9237L22.32 15.6031L2.85073 1.19263L0.299988 8.84504Z" fill="#763E1A" stroke="#763E1A" stroke-width="0.397223" stroke-linecap="round" stroke-linejoin="round"/>
<path d="M47.9271 25.0045L37.3455 21.9237L40.534 26.7338L35.7712 36.016L42.0684 35.9366H51.4742L47.9271 25.0045Z" fill="#F5841F" stroke="#F5841F" stroke-width="0.397223" stroke-linecap="round" stroke-linejoin="round"/>
<path d="M14.827 21.9237L4.24545 25.0045L0.718262 35.9366H10.1042L16.4012 36.016L11.6386 26.7338L14.827 21.9237Z" fill="#F5841F" stroke="#F5841F" stroke-width="0.397223" stroke-linecap="round" stroke-linejoin="round"/>
<path d="M29.175 27.2505L29.8525 15.6028L32.9213 7.31445H19.251L22.3198 15.6028L22.9973 27.2505L23.2564 30.9077L23.2763 39.9515H28.8959L28.9159 30.9077L29.175 27.2505Z" fill="#F5841F" stroke="#F5841F" stroke-width="0.397223" stroke-linecap="round" stroke-linejoin="round"/>
</svg>
