<svg width="285" height="80" viewBox="0 0 285 80" fill="none" xmlns="http://www.w3.org/2000/svg">
<path d="M253.784 41.1834C252.428 40.289 250.934 39.653 249.519 38.858C248.602 38.3412 247.625 37.8839 246.829 37.228C245.473 36.115 245.752 33.9287 247.168 32.9746C249.2 31.623 252.567 32.3782 252.926 35.1411C252.926 35.2006 252.986 35.2405 253.046 35.2405H256.115C256.195 35.2405 256.255 35.1808 256.235 35.1014C256.075 33.1931 255.338 31.6031 253.983 30.5894C252.687 29.6154 251.213 29.0986 249.637 29.0986C241.527 29.0986 240.79 37.6653 245.154 40.3686C245.652 40.6866 249.936 42.8332 251.452 43.7674C252.966 44.7015 253.445 46.411 252.787 47.7625C252.188 48.9949 250.634 49.8496 249.081 49.7502C247.386 49.6508 246.071 48.7366 245.612 47.3054C245.533 47.0471 245.493 46.5501 245.493 46.3315C245.493 46.2718 245.433 46.2122 245.373 46.2122H242.046C241.986 46.2122 241.926 46.2718 241.926 46.3315C241.926 48.7366 242.525 50.0682 244.158 51.2808C245.692 52.4335 247.366 52.9106 249.101 52.9106C253.644 52.9106 255.996 50.3464 256.473 47.683C256.891 45.0792 256.115 42.7338 253.784 41.1834Z" fill="white"/>
<path d="M109.288 29.5361H107.813H106.199C106.139 29.5361 106.099 29.5759 106.08 29.6156L103.35 38.5998C103.31 38.7191 103.15 38.7191 103.11 38.5998L100.38 29.6156C100.36 29.556 100.321 29.5361 100.261 29.5361H98.6467H97.172H95.1792C95.1194 29.5361 95.0596 29.5958 95.0596 29.6554V52.5928C95.0596 52.6523 95.1194 52.712 95.1792 52.712H98.5071C98.5669 52.712 98.6267 52.6523 98.6267 52.5928V35.1611C98.6267 35.022 98.826 35.0022 98.8659 35.1214L101.616 44.1652L101.815 44.8012C101.835 44.8608 101.875 44.8808 101.935 44.8808H104.485C104.545 44.8808 104.585 44.8409 104.605 44.8012L104.804 44.1652L107.554 35.1214C107.594 34.9823 107.793 35.022 107.793 35.1611V52.5928C107.793 52.6523 107.853 52.712 107.913 52.712H111.241C111.301 52.712 111.36 52.6523 111.36 52.5928V29.6554C111.36 29.5958 111.301 29.5361 111.241 29.5361H109.288Z" fill="white"/>
<path d="M202.828 29.5361C202.768 29.5361 202.728 29.5759 202.708 29.6156L199.979 38.5998C199.939 38.7191 199.78 38.7191 199.74 38.5998L197.01 29.6156C196.99 29.556 196.95 29.5361 196.89 29.5361H191.828C191.768 29.5361 191.708 29.5958 191.708 29.6554V52.5928C191.708 52.6523 191.768 52.712 191.828 52.712H195.157C195.216 52.712 195.276 52.6523 195.276 52.5928V35.1611C195.276 35.022 195.476 35.0022 195.515 35.1214L198.264 44.1652L198.464 44.8012C198.484 44.8608 198.524 44.8808 198.583 44.8808H201.134C201.194 44.8808 201.234 44.8409 201.254 44.8012L201.453 44.1652L204.204 35.1214C204.244 34.9823 204.443 35.022 204.443 35.1611V52.5928C204.443 52.6523 204.503 52.712 204.563 52.712H207.89C207.95 52.712 208.009 52.6523 208.009 52.5928V29.6554C208.009 29.5958 207.95 29.5361 207.89 29.5361H202.828Z" fill="white"/>
<path d="M159.904 29.5361H153.706H150.379H144.181C144.121 29.5361 144.062 29.5958 144.062 29.6554V32.5175C144.062 32.5772 144.121 32.6369 144.181 32.6369H150.259V52.5928C150.259 52.6523 150.319 52.712 150.379 52.712H153.706C153.766 52.712 153.826 52.6523 153.826 52.5928V32.6369H159.904C159.964 32.6369 160.024 32.5772 160.024 32.5175V29.6554C160.024 29.5958 159.984 29.5361 159.904 29.5361Z" fill="white"/>
<path d="M179.533 52.7116H182.561C182.641 52.7116 182.701 52.6322 182.681 52.5527L176.424 29.5358C176.404 29.4762 176.364 29.4563 176.304 29.4563H175.149H173.116H171.96C171.901 29.4563 171.861 29.4961 171.841 29.5358L165.583 52.5527C165.564 52.6322 165.623 52.7116 165.703 52.7116H168.732C168.792 52.7116 168.832 52.6719 168.852 52.6322L170.665 45.9338C170.685 45.8743 170.725 45.8543 170.785 45.8543H177.481C177.541 45.8543 177.581 45.894 177.601 45.9338L179.414 52.6322C179.434 52.6719 179.493 52.7116 179.533 52.7116ZM171.582 42.5748L174.013 33.6104C174.053 33.4912 174.212 33.4912 174.252 33.6104L176.683 42.5748C176.703 42.6542 176.643 42.7337 176.564 42.7337H171.701C171.622 42.7337 171.562 42.6542 171.582 42.5748Z" fill="white"/>
<path d="M231.186 52.7116H234.214C234.293 52.7116 234.353 52.6322 234.333 52.5527L228.076 29.5358C228.056 29.4762 228.017 29.4563 227.957 29.4563H226.802H224.769H223.613C223.553 29.4563 223.513 29.4961 223.493 29.5358L217.236 52.5527C217.216 52.6322 217.276 52.7116 217.356 52.7116H220.385C220.445 52.7116 220.485 52.6719 220.505 52.6322L222.318 45.9338C222.338 45.8743 222.378 45.8543 222.438 45.8543H229.133C229.193 45.8543 229.233 45.894 229.253 45.9338L231.066 52.6322C231.086 52.6719 231.126 52.7116 231.186 52.7116ZM223.234 42.5748L225.665 33.6104C225.705 33.4912 225.864 33.4912 225.904 33.6104L228.336 42.5748C228.356 42.6542 228.296 42.7337 228.216 42.7337H223.353C223.274 42.7337 223.214 42.6542 223.234 42.5748Z" fill="white"/>
<path d="M124.871 49.313V42.1972C124.871 42.1377 124.931 42.0781 124.991 42.0781H133.859C133.919 42.0781 133.978 42.0184 133.978 41.9587V39.0965C133.978 39.037 133.919 38.9774 133.859 38.9774H124.991C124.931 38.9774 124.871 38.9177 124.871 38.858V32.7759C124.871 32.7163 124.931 32.6566 124.991 32.6566H135.074C135.134 32.6566 135.194 32.5969 135.194 32.5374V29.6752C135.194 29.6155 135.134 29.5559 135.074 29.5559H124.871H121.424C121.364 29.5559 121.304 29.6155 121.304 29.6752V32.6566V38.9971V42.098V49.4522V52.5926C121.304 52.6523 121.364 52.7119 121.424 52.7119H124.871H135.493C135.553 52.7119 135.613 52.6523 135.613 52.5926V49.5715C135.613 49.5118 135.553 49.4522 135.493 49.4522H124.971C124.911 49.4324 124.871 49.3925 124.871 49.313Z" fill="white"/>
<path d="M284.192 52.5131L272.674 40.6469C272.634 40.6072 272.634 40.5277 272.674 40.488L283.037 29.7547C283.117 29.6752 283.057 29.5559 282.958 29.5559H278.713C278.673 29.5559 278.653 29.5758 278.633 29.5957L269.845 38.6991C269.766 38.7786 269.646 38.7189 269.646 38.6195V29.6752C269.646 29.6155 269.586 29.5559 269.526 29.5559H266.198C266.138 29.5559 266.078 29.6155 266.078 29.6752V52.6125C266.078 52.6722 266.138 52.7319 266.198 52.7319H269.526C269.586 52.7319 269.646 52.6722 269.646 52.6125V42.5154C269.646 42.416 269.786 42.3563 269.845 42.4358L279.808 52.692C279.828 52.7119 279.868 52.7319 279.888 52.7319H284.133C284.212 52.7119 284.272 52.5728 284.192 52.5131Z" fill="white"/>
<path d="M17.2332 26.3902C29.5308 14.3345 49.4691 14.3345 61.7667 26.3902L63.2468 27.8412C63.8617 28.4439 63.8617 29.4213 63.2468 30.0241L58.1839 34.9874C57.8764 35.2888 57.378 35.2888 57.0705 34.9874L55.0339 32.9907C46.4547 24.5803 32.5453 24.5803 23.9661 32.9907L21.785 35.129C21.4775 35.4304 20.9791 35.4304 20.6717 35.129L15.6087 30.1656C14.9939 29.5629 14.9939 28.5855 15.6087 27.9827L17.2332 26.3902ZM72.2374 36.655L76.7433 41.0723C77.3582 41.6751 77.3582 42.6525 76.7433 43.2553L56.4255 63.1739C55.8106 63.7767 54.8137 63.7767 54.1988 63.1739L39.7784 49.0371C39.6247 48.8864 39.3754 48.8864 39.2217 49.0371L24.8016 63.1739C24.1868 63.7767 23.1899 63.7767 22.575 63.1739L2.25657 43.255C1.64169 42.6522 1.64169 41.6749 2.25657 41.0721L6.76258 36.6547C7.37746 36.0519 8.37438 36.0519 8.98926 36.6547L23.4098 50.7917C23.5636 50.9425 23.8128 50.9425 23.9665 50.7917L38.3864 36.6547C39.0013 36.0519 39.9982 36.0518 40.613 36.6546L55.0337 50.7917C55.1874 50.9425 55.4366 50.9425 55.5904 50.7917L70.0107 36.655C70.6256 36.0522 71.6224 36.0522 72.2374 36.655Z" fill="#3B99FC"/>
</svg>
