<svg width="96" height="96" viewBox="0 0 96 96" fill="none" xmlns="http://www.w3.org/2000/svg">
<g clip-path="url(#clip0_542_34)">
<circle cx="48" cy="48" r="48" fill="#141417"/>
<path d="M16.7153 58.7108C17.6626 58.7108 18.4306 57.9429 18.4306 56.9956C18.4306 56.0482 17.6626 55.2803 16.7153 55.2803C15.768 55.2803 15 56.0482 15 56.9956C15 57.9429 15.768 58.7108 16.7153 58.7108Z" fill="#34C88A"/>
<path d="M29.1973 40.0762C29.83 40.0762 30.448 40.1477 31.0408 40.2801C34.6059 30.5602 43.9517 23.6045 54.8908 23.6045C59.364 23.6045 63.7321 24.7921 67.5642 27.0056L69.2984 25.0044C64.9723 22.4 59.9946 21 54.8908 21C42.5538 21 32.0582 29.0215 28.3375 40.1204C28.6192 40.091 28.9072 40.0762 29.1973 40.0762V40.0762Z" fill="#34C88A"/>
<path d="M68.4869 70.4345C64.144 73.203 59.0507 74.5903 53.7809 74.3654C42.9973 73.9029 33.9773 66.6508 30.7612 56.8762C30.2546 56.9708 29.7311 57.0234 29.1972 57.0234C28.8062 57.0234 28.4216 56.9939 28.0453 56.9435C31.478 68.5217 42.2132 76.9951 54.8908 76.9951C60.3793 76.9951 65.6786 75.3933 70.2064 72.421L68.4869 70.4366V70.4345Z" fill="#34C88A"/>
<path d="M29.1972 57.4729C24.2763 57.4729 20.2719 53.4685 20.2719 48.5496C20.2719 43.6308 24.2763 39.6243 29.1972 39.6243C34.1182 39.6243 38.1205 43.6287 38.1205 48.5496C38.1205 53.4706 34.116 57.4729 29.1972 57.4729ZM29.1972 40.978C25.0225 40.978 21.6277 44.3749 21.6277 48.5475C21.6277 52.7201 25.0246 56.1171 29.1972 56.1171C33.3698 56.1171 36.7668 52.7222 36.7668 48.5475C36.7668 44.3728 33.3719 40.978 29.1972 40.978V40.978Z" fill="#34C88A"/>
<path d="M29.1971 52.8186C31.555 52.8186 33.4664 50.9072 33.4664 48.5493C33.4664 46.1915 31.555 44.28 29.1971 44.28C26.8393 44.28 24.9279 46.1915 24.9279 48.5493C24.9279 50.9072 26.8393 52.8186 29.1971 52.8186Z" fill="#34C88A"/>
</g>
<defs>
<clipPath id="clip0_542_34">
<rect width="96" height="96" fill="white"/>
</clipPath>
</defs>
</svg>
