<svg width="512" height="512" viewBox="0 0 512 512" fill="none" xmlns="http://www.w3.org/2000/svg">
<g clip-path="url(#clip0_555_22)">
<path d="M85.3036 308.004C90.3278 308.004 94.4008 303.931 94.4008 298.907C94.4008 293.883 90.3278 289.81 85.3036 289.81C80.2793 289.81 76.2064 293.883 76.2064 298.907C76.2064 303.931 80.2793 308.004 85.3036 308.004Z" fill="#34C88A"/>
<path d="M151.503 209.173C154.859 209.173 158.136 209.552 161.28 210.255C180.188 158.704 229.755 121.813 287.772 121.813C311.496 121.813 334.663 128.112 354.986 139.851L364.184 129.238C341.24 115.425 314.84 108 287.772 108C222.341 108 166.676 150.543 146.943 209.407C148.437 209.251 149.964 209.173 151.503 209.173V209.173Z" fill="#34C88A"/>
<path d="M359.88 370.181C336.848 384.864 309.835 392.222 281.885 391.029C224.693 388.577 176.855 350.114 159.797 298.273C157.11 298.775 154.334 299.054 151.503 299.054C149.429 299.054 147.389 298.898 145.393 298.63C163.599 360.036 220.535 404.976 287.772 404.976C316.88 404.976 344.986 396.481 369 380.717L359.88 370.193V370.181Z" fill="#34C88A"/>
<path d="M151.503 301.439C125.404 301.439 104.166 280.201 104.166 254.113C104.166 228.025 125.404 206.776 151.503 206.776C177.602 206.776 198.829 228.014 198.829 254.113C198.829 280.212 177.591 301.439 151.503 301.439ZM151.503 213.956C129.362 213.956 111.357 231.972 111.357 254.102C111.357 276.232 129.373 294.248 151.503 294.248C173.633 294.248 191.649 276.243 191.649 254.102C191.649 231.961 173.644 213.956 151.503 213.956V213.956Z" fill="#34C88A"/>
<path d="M151.503 276.755C164.008 276.755 174.146 266.617 174.146 254.112C174.146 241.607 164.008 231.469 151.503 231.469C138.998 231.469 128.86 241.607 128.86 254.112C128.86 266.617 138.998 276.755 151.503 276.755Z" fill="#34C88A"/>
</g>
<defs>
<clipPath id="clip0_555_22">
<rect width="512" height="512" fill="white"/>
</clipPath>
</defs>
</svg>
